<svg xmlns="http://www.w3.org/2000/svg" width="30" height="30"><path fill="#fff" d="M20.119 14.998l8.82-8.818c1.414-1.413 1.414-3.707 0-5.12-1.416-1.414-3.709-1.414-5.123 0l-8.818 8.818-8.818-8.817c-1.415-1.414-3.705-1.414-5.12 0-1.414 1.413-1.414 3.707 0 5.12l8.818 8.818-8.818 8.817c-1.414 1.414-1.414 3.709 0 5.123.708.707 1.633 1.061 2.56 1.061s1.853-.354 2.56-1.061l8.818-8.82 8.818 8.82c.707.707 1.634 1.061 2.562 1.061.927 0 1.854-.354 2.562-1.061 1.414-1.416 1.414-3.709 0-5.123l-8.821-8.818z"/></svg>